<svg width="1044" height="257" viewBox="0 0 1044 257" fill="none" xmlns="http://www.w3.org/2000/svg">
<g clip-path="url(#clip0_792_2)">
<path d="M393.04 96.24H324.28V106.44H353.2V180H364.12V106.44H393.04V96.24ZM481.399 96.24V133.08H435.919V96.24H424.999V180H435.919V143.28H481.399V180H492.319V96.24H481.399ZM591.665 106.44V96.24H533.585V180H591.665V169.8H544.505V143.16H587.345V132.96H544.505V106.44H591.665Z" fill="#9F9F9F"/>
<path d="M708.392 180L697.592 154.224H648.776L637.976 180H623.72L666.344 79.488H680.024L722.648 180H708.392ZM653.96 141.552V142.272H692.408V141.552L673.4 95.616H673.112L653.96 141.552ZM798.286 79.488C805.198 79.488 811.246 80.448 816.43 82.368C821.614 84.192 825.598 86.688 828.382 89.856C831.262 93.024 833.374 96.432 834.718 100.08C836.062 103.632 836.734 107.424 836.734 111.456C836.734 115.488 836.062 119.328 834.718 122.976C833.374 126.528 831.262 129.888 828.382 133.056C825.598 136.224 821.614 138.768 816.43 140.688C811.246 142.512 805.198 143.424 798.286 143.424H772.078V180H758.974V79.488H798.286ZM796.99 131.04C806.782 131.04 813.646 129.168 817.582 125.424C821.614 121.68 823.63 117.024 823.63 111.456C823.63 105.888 821.614 101.232 817.582 97.488C813.646 93.744 806.782 91.872 796.99 91.872H772.078V131.04H796.99ZM890.006 79.488V180H876.902V79.488H890.006ZM946.909 106.56C946.909 110.4 948.397 113.568 951.373 116.064C954.445 118.56 958.237 120.336 962.749 121.392C967.261 122.352 972.157 123.6 977.437 125.136C982.813 126.576 987.757 128.16 992.269 129.888C996.781 131.616 1000.52 134.496 1003.5 138.528C1006.57 142.464 1008.11 147.408 1008.11 153.36C1008.11 161.616 1004.7 168.384 997.885 173.664C991.165 178.848 981.757 181.44 969.661 181.44C957.565 181.44 946.045 178.848 935.101 173.664V160.848H935.821C945.805 166.416 957.181 169.2 969.949 169.2C986.749 169.2 995.149 163.632 995.149 152.496C995.149 147.024 991.069 142.992 982.909 140.4C979.357 139.248 975.421 138.144 971.101 137.088C966.781 136.032 962.413 134.784 957.997 133.344C953.677 131.904 949.693 130.224 946.045 128.304C942.493 126.288 939.565 123.552 937.261 120.096C935.053 116.544 933.949 112.368 933.949 107.568C933.949 99.216 937.213 92.208 943.741 86.544C950.365 80.88 959.245 78.048 970.381 78.048C981.613 78.048 991.741 79.776 1000.76 83.232V95.472H999.757C990.733 91.824 982.045 90 973.693 90C965.437 90 958.909 91.488 954.109 94.464C949.309 97.344 946.909 101.376 946.909 106.56Z" fill="black"/>
<rect x="11" y="11" width="235" height="235" rx="117.5" fill="white"/>
<path d="M202.813 198.877C197.38 198.877 192.214 195.849 189.631 190.683L141.538 74.1002C137.708 66.2627 126.664 66.0846 122.567 73.833L66.9922 190.505C63.4297 197.363 55.236 200.836 48.111 197.897C40.0953 194.513 36.8891 185.161 40.8078 177.591L107.516 39.8112C112.325 30.1034 121.944 24.2252 132.809 24.4034C143.675 24.5815 153.116 30.8158 157.569 40.6127L215.459 177.413C218.666 184.092 216.973 192.375 210.828 196.472C208.423 198.075 205.573 198.877 202.813 198.877Z" fill="black"/>
<path d="M196.935 144.192C208.248 144.192 217.419 135.021 217.419 123.708C217.419 112.394 208.248 103.223 196.935 103.223C185.621 103.223 176.45 112.394 176.45 123.708C176.45 135.021 185.621 144.192 196.935 144.192Z" fill="#C41E3A"/>
<path d="M131.206 138.314H59.6893C51.5846 138.314 45.083 131.812 45.083 123.708C45.083 115.603 51.5846 109.102 59.6893 109.102H131.206C139.311 109.102 145.813 115.603 145.813 123.708C145.813 131.812 139.311 138.314 131.206 138.314Z" fill="#C41E3A"/>
<path d="M827.512 235.728C827.512 239.909 824.771 242 819.288 242H810.104V219.664H819.096C821.379 219.664 823.139 220.187 824.376 221.232C825.635 222.277 826.264 223.685 826.264 225.456C826.264 227.803 825.24 229.435 823.192 230.352V230.448C826.072 231.365 827.512 233.125 827.512 235.728ZM813.016 239.28H819C821.069 239.28 822.531 238.96 823.384 238.32C824.259 237.68 824.696 236.773 824.696 235.6C824.696 233.168 822.808 231.952 819.032 231.952H813.016V239.28ZM813.016 229.328H818.328C820.227 229.328 821.56 229.008 822.328 228.368C823.096 227.728 823.48 226.875 823.48 225.808C823.48 224.72 823.064 223.877 822.232 223.28C821.421 222.683 820.301 222.384 818.872 222.384H813.016V229.328ZM850.851 233.84V234.864H838.499C838.67 236.357 839.225 237.52 840.163 238.352C841.102 239.184 842.521 239.6 844.419 239.6C846.339 239.6 848.11 239.067 849.731 238H849.891V240.816C848.099 241.819 845.987 242.32 843.556 242.32C841.145 242.32 839.203 241.584 837.731 240.112C836.281 238.619 835.555 236.613 835.555 234.096C835.555 231.557 836.206 229.467 837.507 227.824C838.809 226.181 840.707 225.36 843.203 225.36C845.7 225.36 847.598 226.181 848.899 227.824C850.201 229.467 850.851 231.472 850.851 233.84ZM838.499 232.496H847.939C847.854 230.96 847.331 229.797 846.372 229.008C845.433 228.219 844.377 227.824 843.203 227.824C842.03 227.824 840.974 228.219 840.035 229.008C839.097 229.797 838.585 230.96 838.499 232.496ZM868.173 228.176H863.533V237.84C863.533 238.736 863.779 239.291 864.269 239.504C864.675 239.675 865.197 239.76 865.837 239.76C866.477 239.76 867.181 239.589 867.949 239.248H868.173V241.616C867.277 242.085 866.317 242.32 865.293 242.32C862.179 242.32 860.621 240.912 860.621 238.096V228.176H857.581V227.984L863.533 222.16V225.68H868.173V228.176ZM876.935 226.576C878.791 225.765 880.775 225.36 882.887 225.36C885.02 225.36 886.652 225.979 887.783 227.216C888.913 228.453 889.479 229.936 889.479 231.664V242H886.919L886.567 239.952H886.471C884.935 241.531 882.961 242.32 880.551 242.32C879.1 242.32 877.863 241.883 876.839 241.008C875.836 240.133 875.335 238.939 875.335 237.424C875.335 235.909 875.953 234.683 877.191 233.744C878.449 232.805 880.284 232.336 882.695 232.336H886.567V232.08C886.567 230.672 886.215 229.659 885.511 229.04C884.828 228.421 883.633 228.112 881.927 228.112C880.22 228.112 878.62 228.475 877.127 229.2H876.935V226.576ZM886.567 237.36V234.672H883.079C879.857 234.672 878.247 235.525 878.247 237.232C878.247 238.917 879.377 239.76 881.639 239.76C882.577 239.76 883.484 239.536 884.359 239.088C885.233 238.619 885.969 238.043 886.567 237.36ZM923.381 225.68H926.549L919.701 242H916.821L909.973 225.68H913.141L918.197 238.544H918.325L923.381 225.68ZM946.039 230.832C946.039 227.312 946.775 224.517 948.247 222.448C949.74 220.379 951.884 219.344 954.679 219.344C957.495 219.344 959.649 220.379 961.143 222.448C962.636 224.517 963.383 227.312 963.383 230.832C963.383 234.352 962.636 237.147 961.143 239.216C959.649 241.285 957.495 242.32 954.679 242.32C951.884 242.32 949.74 241.285 948.247 239.216C946.775 237.147 946.039 234.352 946.039 230.832ZM950.423 237.296C951.425 238.853 952.855 239.632 954.711 239.632C956.567 239.632 957.985 238.853 958.967 237.296C959.969 235.739 960.471 233.595 960.471 230.864C960.471 228.112 959.969 225.957 958.967 224.4C957.985 222.843 956.567 222.064 954.711 222.064C952.855 222.064 951.425 222.843 950.423 224.4C949.441 225.957 948.951 228.112 948.951 230.864C948.951 233.595 949.441 235.739 950.423 237.296ZM971.924 242V238.416H975.508V242H971.924ZM995.053 239.28H999.437V242H987.149V239.28H992.141V223.088H992.013L987.373 225.392V222.288L992.365 219.664H995.053V239.28Z" fill="black"/>
</g>
<defs>
<clipPath id="clip0_792_2">
<rect width="1044" height="257" fill="white"/>
</clipPath>
</defs>
</svg>
